<?xml version="1.0" standalone="no"?>
<!DOCTYPE svg PUBLIC "-//W3C//DTD SVG 20010904//EN"
 "http://www.w3.org/TR/2001/REC-SVG-20010904/DTD/svg10.dtd">
<svg version="1.0" xmlns="http://www.w3.org/2000/svg"
 width="260.000000pt" height="260.000000pt" viewBox="0 0 260.000000 260.000000"
 preserveAspectRatio="xMidYMid meet">
<metadata>
Created by potrace 1.11, written by Peter Selinger 2001-2013
</metadata>
<g transform="translate(0.000000,260.000000) scale(0.100000,-0.100000)"
fill="#000000" stroke="none">
<path d="M1235 2541 c-3 -7 -12 -10 -21 -7 -8 3 -12 2 -9 -4 3 -6 -3 -10 -14
-10 -12 0 -21 4 -21 9 0 11 -93 -27 -98 -40 -2 -5 -8 -7 -13 -4 -5 4 -6 -1 -3
-9 3 -9 2 -16 -4 -16 -6 0 -9 -8 -7 -17 1 -10 0 -22 -3 -28 -3 -5 -7 -34 -8
-64 -2 -30 -6 -66 -10 -80 -11 -41 -11 -85 -1 -98 7 -10 3 -13 -12 -13 -20 0
-21 -2 -7 -15 11 -11 12 -23 6 -44 -4 -16 -6 -31 -4 -34 3 -2 0 -16 -5 -30 -7
-17 -7 -28 0 -32 5 -4 6 -12 2 -18 -4 -7 -9 -34 -10 -61 -2 -27 -9 -56 -15
-64 -10 -13 -10 -14 0 -8 14 9 14 9 3 -31 -6 -21 -6 -35 0 -39 6 -3 6 -11 1
-17 -4 -7 -8 -58 -7 -114 0 -59 -4 -103 -9 -103 -6 0 -5 -5 2 -12 17 -17 15
-28 -5 -28 -12 0 -14 -3 -6 -8 7 -5 13 -39 15 -85 2 -42 8 -77 13 -76 6 1 9 5
8 10 -2 5 2 9 8 9 6 0 9 -7 6 -15 -4 -8 -2 -17 2 -19 5 -3 6 -17 3 -32 -3 -19
-7 -22 -13 -12 -7 10 -9 9 -10 -4 -3 -38 -5 -43 -17 -40 -7 1 -15 -5 -18 -13
-4 -8 -12 -15 -20 -15 -8 0 -14 -9 -14 -19 0 -11 -9 -21 -23 -25 -13 -3 -29
-17 -37 -31 -7 -14 -17 -25 -22 -25 -4 0 -8 -7 -8 -16 0 -9 5 -12 12 -8 7 4 8
3 4 -4 -4 -7 -18 -12 -31 -12 -18 0 -28 -10 -42 -40 -10 -22 -23 -38 -28 -36
-6 2 -12 -6 -13 -17 0 -12 -7 -26 -14 -32 -8 -5 -13 -17 -13 -25 0 -8 -5 -21
-12 -28 -7 -8 -11 -18 -8 -23 4 -5 2 -9 -3 -9 -6 0 -8 -10 -4 -22 3 -13 1 -19
-5 -15 -6 4 -9 -13 -8 -43 1 -31 -2 -50 -9 -50 -6 0 -5 -4 3 -9 12 -8 13 -14
3 -36 -12 -25 -11 -26 10 -20 22 7 22 6 4 -7 -15 -12 -16 -19 -8 -35 6 -11 8
-23 5 -27 -3 -3 3 -6 15 -6 19 0 21 -2 10 -19 -9 -15 -9 -25 0 -46 8 -17 8
-24 1 -20 -13 9 10 -32 34 -59 13 -15 14 -22 5 -28 -9 -5 -8 -8 5 -8 10 0 16
-4 13 -8 -3 -5 4 -14 14 -22 10 -8 17 -17 14 -22 -3 -4 2 -8 10 -8 9 0 16 -8
16 -18 0 -11 12 -24 26 -31 16 -7 24 -17 20 -26 -3 -8 -2 -14 2 -14 4 1 16 1
27 0 20 -2 20 -2 1 -16 -17 -13 -18 -15 -3 -15 9 0 17 -5 17 -11 0 -6 6 -9 13
-6 6 2 21 -6 32 -18 36 -39 83 -66 119 -67 22 -1 33 -5 29 -12 -3 -6 0 -5 8 1
18 17 73 17 63 1 -6 -10 -4 -10 7 -2 19 16 221 15 231 0 6 -8 8 -7 8 2 0 8 18
12 56 12 36 0 71 8 102 22 26 12 52 21 57 20 6 -1 2 4 -8 12 -13 10 -15 16 -6
21 6 4 14 2 18 -4 5 -7 20 4 42 30 19 22 44 51 56 64 16 17 19 25 10 34 -9 9
-8 11 5 6 11 -5 22 2 35 22 9 15 21 31 26 34 5 3 9 12 10 20 2 8 7 20 11 28 7
10 6 12 -4 6 -8 -5 -11 -3 -8 6 3 8 10 14 17 14 17 0 42 35 34 48 -4 7 1 8 12
3 15 -6 16 -4 5 10 -12 13 -11 17 1 25 12 8 12 10 -1 19 -12 8 -13 10 -1 10 8
0 12 3 8 6 -3 3 -1 18 5 33 16 42 19 69 8 76 -6 4 -7 13 -2 23 8 17 8 24 -4
100 -6 36 -10 42 -25 37 -15 -5 -19 -1 -19 17 0 13 -5 29 -12 36 -9 9 -9 12
-1 12 7 0 11 9 10 20 -1 11 -5 20 -9 20 -4 0 -8 6 -8 13 0 8 -11 27 -25 43
-14 16 -25 35 -25 42 0 6 -5 12 -11 12 -6 0 -9 6 -6 14 4 10 0 12 -15 8 -18
-4 -20 -2 -16 16 4 12 2 20 -2 17 -5 -3 -11 -1 -15 5 -4 6 -11 8 -16 5 -5 -4
-12 2 -16 12 -9 23 -27 41 -44 45 -20 4 -35 21 -44 47 -5 16 -4 21 3 17 11 -7
27 51 24 87 -1 13 4 17 15 13 13 -5 14 -4 4 8 -12 14 -21 106 -11 106 4 0 5
24 4 53 -1 37 -6 51 -16 49 -8 -1 -6 3 4 11 10 8 16 16 13 18 -2 3 -6 55 -8
117 -3 62 -7 116 -10 119 -4 3 -2 14 3 24 7 12 7 20 0 24 -6 4 -9 20 -6 36 3
20 0 29 -9 29 -21 0 -25 14 -12 41 11 21 13 43 7 59 -7 20 -7 40 2 40 7 0 7 4
1 13 -9 12 -16 59 -15 105 0 12 -4 22 -9 22 -5 0 -9 -4 -9 -10 0 -5 -4 -10 -8
-10 -5 0 -9 7 -9 15 0 8 3 12 7 10 3 -2 12 0 20 6 13 7 13 9 0 9 -13 0 -13 1
0 10 10 6 11 10 3 10 -7 0 -13 5 -13 11 0 5 6 7 13 3 9 -5 9 -4 0 6 -6 7 -9
19 -6 26 3 8 0 14 -6 14 -6 0 -11 -5 -11 -11 0 -5 -4 -7 -10 -4 -14 9 -12 25
3 25 8 0 12 11 11 28 -2 41 -3 44 -13 37 -22 -13 -21 17 1 35 13 11 17 19 11
20 -7 0 -13 6 -13 13 0 14 -60 46 -100 54 -13 2 -30 9 -37 15 -7 6 -13 7 -13
3 0 -4 -7 -2 -16 5 -8 8 -14 9 -13 4 4 -21 -2 -24 -17 -9 -20 20 -111 17 -119
-4z m55 -1 c0 -5 -5 -10 -11 -10 -5 0 -7 5 -4 10 3 6 8 10 11 10 2 0 4 -4 4
-10z m-240 -296 c0 -8 -4 -12 -10 -9 -5 3 -10 10 -10 16 0 5 5 9 10 9 6 0 10
-7 10 -16z m670 -1134 c0 -5 -8 -10 -17 -10 -15 0 -16 2 -3 10 19 12 20 12 20
0z m170 -340 c0 -5 -2 -10 -4 -10 -3 0 -8 5 -11 10 -3 6 -1 10 4 10 6 0 11 -4
11 -10z m-40 -266 c0 -8 -5 -12 -10 -9 -6 4 -8 11 -5 16 9 14 15 11 15 -7z
m-733 -360 c-3 -3 -12 -4 -19 -1 -8 3 -5 6 6 6 11 1 17 -2 13 -5z"/>
<path d="M1589 2523 c-13 -16 -12 -17 4 -4 9 7 17 15 17 17 0 8 -8 3 -21 -13z"/>
<path d="M1669 2483 c-13 -16 -12 -17 4 -4 9 7 17 15 17 17 0 8 -8 3 -21 -13z"/>
<path d="M1999 2073 c-13 -16 -12 -17 4 -4 9 7 17 15 17 17 0 8 -8 3 -21 -13z"/>
<path d="M2390 1921 c0 -6 4 -13 10 -16 6 -3 7 1 4 9 -7 18 -14 21 -14 7z"/>
<path d="M1869 1883 c-13 -16 -12 -17 4 -4 9 7 17 15 17 17 0 8 -8 3 -21 -13z"/>
<path d="M190 1646 c0 -2 7 -7 16 -10 8 -3 12 -2 9 4 -6 10 -25 14 -25 6z"/>
<path d="M916 1633 c-6 -14 -5 -15 5 -6 7 7 10 15 7 18 -3 3 -9 -2 -12 -12z"/>
<path d="M2433 1635 c0 -8 4 -12 9 -9 4 3 8 9 8 15 0 5 -4 9 -8 9 -5 0 -9 -7
-9 -15z"/>
<path d="M2235 1529 c-4 -6 -5 -12 -2 -15 2 -3 7 2 10 11 7 17 1 20 -8 4z"/>
<path d="M670 1496 c0 -2 8 -10 18 -17 15 -13 16 -12 3 4 -13 16 -21 21 -21
13z"/>
<path d="M306 1438 c3 -4 9 -8 15 -8 5 0 9 4 9 8 0 5 -7 9 -15 9 -8 0 -12 -4
-9 -9z"/>
<path d="M2430 1336 c0 -2 8 -10 18 -17 15 -13 16 -12 3 4 -13 16 -21 21 -21
13z"/>
<path d="M2550 1319 c0 -5 5 -7 10 -4 6 3 10 8 10 11 0 2 -4 4 -10 4 -5 0 -10
-5 -10 -11z"/>
<path d="M1740 1246 c0 -2 8 -10 18 -17 15 -13 16 -12 3 4 -13 16 -21 21 -21
13z"/>
<path d="M2279 1233 c-13 -16 -12 -17 4 -4 16 13 21 21 13 21 -2 0 -10 -8 -17
-17z"/>
<path d="M1910 1159 c0 -5 5 -7 10 -4 6 3 10 8 10 11 0 2 -4 4 -10 4 -5 0 -10
-5 -10 -11z"/>
<path d="M2230 1120 c0 -5 5 -10 11 -10 5 0 7 5 4 10 -3 6 -8 10 -11 10 -2 0
-4 -4 -4 -10z"/>
<path d="M2233 1005 c0 -8 4 -12 9 -9 5 3 6 10 3 15 -9 13 -12 11 -12 -6z"/>
<path d="M1919 993 c-13 -16 -12 -17 4 -4 16 13 21 21 13 21 -2 0 -10 -8 -17
-17z"/>
<path d="M140 966 c0 -2 8 -10 18 -17 15 -13 16 -12 3 4 -13 16 -21 21 -21 13z"/>
<path d="M479 953 c-13 -16 -12 -17 4 -4 9 7 17 15 17 17 0 8 -8 3 -21 -13z"/>
<path d="M1851 915 c0 -5 6 -19 14 -29 8 -11 15 -15 15 -10 0 6 -7 19 -15 30
-8 10 -14 15 -14 9z"/>
<path d="M2149 723 c-13 -16 -12 -17 4 -4 9 7 17 15 17 17 0 8 -8 3 -21 -13z"/>
<path d="M1916 487 c3 -10 9 -15 12 -12 3 3 0 11 -7 18 -10 9 -11 8 -5 -6z"/>
<path d="M795 200 c3 -5 8 -10 11 -10 2 0 4 5 4 10 0 6 -5 10 -11 10 -5 0 -7
-4 -4 -10z"/>
</g>
</svg>
